<svg width="85" height="37" viewBox="0 0 85 37" fill="none" xmlns="http://www.w3.org/2000/svg">
<g clip-path="url(#clip0_4179_8846)">
<g clip-path="url(#clip1_4179_8846)">
<path d="M36.339 10.3947C36.0347 7.28139 33.26 5.00705 30.1476 5.31962C27.0467 5.63102 24.7826 8.39314 25.0858 11.4949C25.3891 14.5965 28.1452 16.8677 31.2478 16.573C34.3618 16.2768 36.6434 13.508 36.339 10.3947ZM32.1246 6.6248C32.1937 6.62461 32.2452 6.63864 32.3094 6.6561L32.3233 6.65988C32.3484 6.78589 32.3233 6.84445 32.2574 6.9517C32.142 7.13944 32.0136 7.31919 31.8852 7.49897C31.6586 7.8163 31.4319 8.1337 31.2766 8.49524C30.9399 9.2791 31.0183 10.1934 31.0976 11.1173C31.167 11.9259 31.237 12.7418 31.0299 13.484C30.7806 14.3769 30.155 14.9609 29.3716 15.3965C29.3282 15.4038 29.2803 15.4001 29.2342 15.3965C29.2246 15.3958 29.215 15.3951 29.2056 15.3944C29.1996 15.394 29.1937 15.3937 29.1879 15.3934L29.1803 15.3791C29.1357 15.2942 29.133 15.289 29.1653 15.1924C29.2073 15.0671 29.2907 14.9389 29.3694 14.818C29.3994 14.7719 29.4287 14.7268 29.4548 14.6834C29.7271 14.2297 29.9941 13.7396 30.0776 13.2101C30.1819 12.5489 30.1264 11.8685 30.0708 11.1881C30.0003 10.3247 29.9299 9.461 30.1861 8.63689C30.5008 7.62431 31.2377 7.09614 32.1246 6.6248Z" fill="#0B0803"/>
<path d="M49.6508 26.8191C49.2978 23.797 46.5619 21.633 43.5398 21.985C40.5162 22.3369 38.3506 25.0738 38.7037 28.0975C39.0569 31.1213 41.7948 33.2857 44.8182 32.9317C47.8403 32.5777 50.0038 29.8413 49.6508 26.8191ZM43.5482 23.2518C44.2793 23.1977 44.9632 23.3758 45.553 23.8143C46.5074 24.5239 46.9942 25.6967 47.1555 26.8449C47.3262 28.0566 47.3094 29.7394 46.5199 30.7541C46.0892 31.3072 45.5446 31.532 44.8702 31.6145C44.1517 31.6838 43.4327 31.491 42.8454 31.0724C41.9171 30.4028 41.4407 29.3024 41.2678 28.2C41.0708 26.9441 41.0781 25.1867 41.8917 24.1274C42.3246 23.5638 42.8654 23.3395 43.5482 23.2518Z" fill="#0B0803"/>
<path d="M18.256 0.775559C19.2365 0.646984 20.3464 0.747829 21.3003 0.988436C21.8805 1.13476 22.4594 1.33377 23.0525 1.41723C23.3936 1.46518 23.7514 1.46135 24.0955 1.46739C24.1512 2.4223 24.3354 4.71051 24.2251 5.5516C24.0494 5.58569 23.9144 5.57613 23.7377 5.55208C23.5567 5.34283 23.4716 4.87448 23.3629 4.60315C22.964 3.60811 22.1754 2.84353 21.1866 2.43795C19.9475 1.92969 18.4679 1.99503 17.2466 2.52262C15.9639 3.07674 14.9188 4.18575 14.4094 5.48474C13.6204 7.49678 13.6259 10.0776 14.5112 12.0582C15.1245 13.4304 16.2155 14.6375 17.6432 15.1732C19.0061 15.6846 20.4872 15.5334 21.7927 14.9352C22.3756 14.6378 22.9146 14.1956 23.2614 13.6351C23.4576 13.318 23.6018 12.7153 23.913 12.5105L23.9996 12.5449C24.334 12.9674 24.4585 14.2885 24.5684 14.8569C23.3101 15.9659 21.7921 16.7012 20.1236 16.9207C17.9399 17.2075 15.661 16.7668 13.8965 15.4052C12.2903 14.1657 11.3147 12.2182 11.0735 10.2224C10.7932 7.90315 11.3053 5.56253 12.7732 3.71657C14.1259 2.01562 16.1155 1.02116 18.256 0.775559Z" fill="#0B0803"/>
<path d="M59.2648 6.28423C58.6803 6.13869 57.9728 6.06012 57.3735 6.13443C55.9748 6.27183 54.7789 6.81108 53.8702 7.90781C52.8634 9.13642 52.3854 10.7143 52.5403 12.2951C52.6795 13.6427 53.2993 14.9826 54.3745 15.835C55.5037 16.7311 57.0993 16.9837 58.5006 16.8178C59.7449 16.6707 60.8478 16.1334 61.6194 15.1289C61.9724 14.6699 62.2287 14.1511 62.4309 13.6107C62.4061 13.5873 62.3815 13.563 62.3566 13.5386C62.2374 13.4214 62.1144 13.3004 61.954 13.2517C61.9398 13.2581 61.9276 13.2633 61.9168 13.2678C61.868 13.2884 61.8484 13.2967 61.808 13.3581C61.1425 14.3378 60.3799 14.9863 59.1887 15.209C58.2601 15.3826 57.3372 15.2228 56.5583 14.6763C55.9386 14.2414 55.4496 13.5994 55.1633 12.9009C56.5878 12.0563 58.1361 11.2014 59.7748 10.8657C60.0992 10.7993 60.4299 10.762 60.7596 10.7248C61.1063 10.6857 61.4518 10.6467 61.7875 10.5741C62.0128 10.5254 62.1746 10.4796 62.2513 10.2409C62.443 9.64174 62.1405 8.66287 61.8384 8.14658C61.2864 7.2018 60.3169 6.546 59.2648 6.28423ZM57.8157 7.23746C58.082 7.23904 58.3672 7.2579 58.6235 7.3287C59.0574 7.44834 59.4503 7.70539 59.6619 8.11176C59.8085 8.39296 59.923 8.84382 59.8079 9.1515C59.7113 9.4098 59.5023 9.58633 59.2711 9.72289C58.9827 9.89287 58.6372 10.0022 58.3045 10.1075C58.1913 10.1433 58.0797 10.1787 57.9723 10.2158C57.3908 10.4166 56.8178 10.6357 56.2637 10.9038C56.137 10.9601 55.9769 11.0613 55.8063 11.169C55.4859 11.3714 55.1287 11.597 54.8871 11.5931C54.7579 11.485 54.7248 11.3952 54.7112 11.2328C54.6213 10.1553 55.0552 8.92969 55.7521 8.11512C56.2626 7.51888 57.0637 7.29844 57.8157 7.23746Z" fill="#0B0803"/>
<path d="M69.7405 6.18141C69.3266 6.12468 68.9075 6.10887 68.4905 6.13419C67.0713 6.24995 65.8712 6.76762 64.9426 7.87248C63.921 9.096 63.4305 10.6771 63.5801 12.2642C63.7051 13.5787 64.3191 14.923 65.3544 15.7671C66.4689 16.676 68.1318 16.9869 69.5346 16.8278C70.7831 16.6865 71.905 16.0998 72.6844 15.1087C73.0431 14.6487 73.3242 14.1328 73.5158 13.5815C73.4916 13.5605 73.4663 13.5375 73.4401 13.5136C73.3102 13.3951 73.1574 13.2559 72.9948 13.2429C72.3267 14.2491 71.5268 14.9571 70.3146 15.2015C69.4012 15.3858 68.5146 15.2513 67.7305 14.7309C67.0577 14.2842 66.5682 13.6336 66.2194 12.9129C67.7594 11.8652 69.6539 11.0627 71.4848 10.724C71.7119 10.6819 71.9426 10.6641 72.1732 10.6463C72.3641 10.6315 72.5549 10.6168 72.7437 10.5883C72.9896 10.5512 73.2391 10.495 73.2942 10.214C73.4492 9.42153 73.1366 8.4683 72.6687 7.83115C71.9628 6.86988 70.9055 6.34349 69.7405 6.18141ZM68.3881 7.27598C68.8655 7.23817 69.3303 7.21464 69.7904 7.38297C70.2316 7.54427 70.5872 7.8625 70.7789 8.29377C70.9055 8.57766 70.9606 8.89552 70.8408 9.19133C70.7726 9.3583 70.6476 9.50999 70.5026 9.61608C70.1557 9.8695 69.299 10.1685 68.5538 10.4286C68.1865 10.5568 67.8463 10.6756 67.6075 10.7748C67.2245 10.9455 66.8554 11.1527 66.487 11.3594C66.2826 11.4741 66.0784 11.5887 65.8722 11.6969C65.6994 10.6416 65.8076 9.56603 66.3822 8.64095C66.857 7.87731 67.5261 7.47342 68.3881 7.27598Z" fill="#0B0803"/>
<path d="M33.0195 18.842C34.1491 18.8357 37.3224 18.6949 38.1783 18.9208C38.2501 19.019 38.2433 19.0206 38.2345 19.143C38.0366 19.4765 37.6143 19.6104 37.3215 19.8494C37.1524 19.987 36.9998 20.1834 36.9487 20.3988C36.7597 21.1961 36.8343 22.1178 36.8336 22.9367L36.8112 26.3948C36.8053 27.2199 36.831 28.0634 36.7343 28.8828C36.596 30.0561 36.0781 31.1465 35.1301 31.8771C33.9484 32.7884 32.2988 32.9911 30.8545 32.7952C29.5895 32.624 28.3554 32.0761 27.5689 31.0378C26.8553 30.096 26.6746 28.9962 26.826 27.8449C26.8659 27.6417 26.9169 27.4452 26.9898 27.2509C27.259 26.5334 27.7855 25.9436 28.4958 25.639C29.2459 25.3175 30.1918 25.2939 30.9455 25.6185C31.3123 25.776 31.5434 26.0476 31.6782 26.4231C31.7607 26.6526 31.7878 26.8491 31.6824 27.0723C31.3785 27.3596 30.6947 26.9746 30.2699 27.0938C29.8778 27.2036 29.5781 27.4783 29.3904 27.8344C29.0646 28.4526 29.0569 29.2604 29.2898 29.9106C29.4974 30.4905 29.9679 30.9585 30.5221 31.2148C31.18 31.5189 32.105 31.595 32.7924 31.3393C33.3248 31.1412 33.7159 30.7179 33.9306 30.1979C34.1157 29.7499 34.2024 29.2347 34.246 28.7541C34.3443 27.6711 34.4661 21.1299 34.2275 20.4224C33.9758 19.6761 33.1177 19.654 32.9211 19.1997C32.9212 19.0899 32.9236 19.0138 32.9765 18.9176C32.9904 18.8919 33.0052 18.8672 33.0195 18.842Z" fill="#0B0803"/>
<path d="M56.3574 30.96C56.839 29.7678 57.255 28.5393 57.6988 27.3318C58.0449 26.3916 58.4724 25.4189 58.6846 24.4404C58.7298 24.2319 58.7498 24.0255 58.6915 23.8175C58.5134 23.182 57.6935 23.2329 57.5081 22.7418C57.5339 22.6341 57.5186 22.5874 57.6216 22.5212C57.8112 22.3999 61.1584 22.3873 61.5687 22.4393C61.7052 22.4566 61.8024 22.4871 61.8922 22.5969C61.9016 22.8327 61.8444 22.9404 61.6322 23.0606C61.2919 23.2529 60.8585 23.3511 60.6033 23.6673C60.2015 24.1652 58.6883 28.4258 58.3149 29.3943L57.0669 32.6318C56.7528 33.4449 56.4587 34.3289 55.9913 35.0684C55.7082 35.5159 55.3269 35.9492 54.8647 36.2155C54.1903 36.6031 53.3352 36.6745 52.5899 36.4649C52.0106 36.3016 51.4806 35.9429 51.2033 35.3972C50.9838 34.9654 50.9297 34.3908 51.0909 33.9307C51.2112 33.5878 51.489 33.3036 51.8199 33.156C52.0342 33.061 52.3845 32.978 52.6062 33.0982C53.1335 33.385 52.79 34.332 52.9922 34.8373C53.0605 35.0069 53.1603 35.1267 53.3336 35.1965C53.6157 35.31 54.1052 35.1545 54.3594 35.0311C55.2187 34.6119 55.5795 33.2611 55.8652 32.427C55.5044 32.4338 55.0873 32.478 54.7318 32.416C54.6766 32.4065 54.6073 32.3918 54.5579 32.3629C54.4403 32.2946 54.3646 32.1707 54.3037 32.052C54.0232 31.5052 53.8331 30.8697 53.6141 30.2941L52.2501 26.7047C51.9817 25.9993 51.738 25.264 51.4087 24.5854C51.1629 24.0796 50.8351 23.5628 50.3298 23.2833C50.0793 23.1452 49.7495 23.1468 49.5798 22.8957C49.5504 22.7245 49.5809 22.6205 49.6339 22.4566C50.5384 22.4199 54.1745 22.3253 54.8431 22.5112C54.8799 22.6389 54.8862 22.8154 54.8358 22.9409C54.7559 23.1394 54.372 23.2003 54.1955 23.2712C54.0049 23.3479 53.8399 23.4635 53.7659 23.6636C53.6845 23.8847 53.7932 24.2403 53.8567 24.4646C54.1335 25.4452 54.58 26.4158 54.9476 27.3701C55.4072 28.5624 55.8216 29.7998 56.3574 30.96Z" fill="#0B0803"/>
<path d="M49.9562 1.6661C50.7592 1.62424 51.5213 1.72682 52.2225 2.14711C52.7346 2.45384 53.1684 2.91546 53.2976 3.51264C53.368 3.83681 53.346 4.1801 53.1574 4.46167C52.9526 4.76741 52.5387 5.0057 52.1752 5.05124C51.9567 5.07855 51.7004 5.04877 51.5255 4.90743C51.1195 4.57938 51.3086 3.9959 51.2314 3.54704C51.1894 3.30544 51.0639 3.10213 50.8548 2.97119C50.5386 2.77281 50.0444 2.70726 49.6857 2.80679C49.3721 2.89366 49.1463 3.11541 49.0018 3.40129C48.5422 4.30883 48.7965 5.49501 49.0806 6.41279C50.0439 6.43669 51.0113 6.41725 51.9751 6.41636C51.9778 6.82525 51.9704 7.22731 51.9394 7.6351C51.0087 7.6341 50.0759 7.61997 49.1463 7.65547C49.0869 8.61181 49.11 9.58348 49.1042 10.542C49.0953 11.9766 48.954 13.5603 49.2828 14.9562C49.3327 15.0855 49.3879 15.2073 49.4551 15.329C49.745 15.8566 49.9236 15.8001 50.4394 15.9701C50.6153 16.0279 50.7172 16.0993 50.7939 16.2632C50.7871 16.4018 50.7655 16.4543 50.6836 16.5662C50.6379 16.5951 50.6195 16.6119 50.5596 16.6229C50.3727 16.6586 45.882 16.6392 45.6278 16.5972C45.4534 16.5678 45.3305 16.5294 45.2207 16.3813C45.2932 15.9575 45.7648 15.9874 46.0485 15.7132C46.3736 15.3992 46.5369 14.9781 46.6273 14.5431C46.8237 13.5962 46.7481 12.5234 46.7444 11.5565L46.726 7.64271L44.8893 7.63588C44.852 7.23167 44.8494 6.82362 44.8389 6.41799L46.6677 6.41704C46.5779 6.14345 46.4886 5.85925 46.4492 5.57327C46.3326 4.72812 46.5291 3.86922 47.0485 3.18443C47.7392 2.27416 48.85 1.80912 49.9562 1.6661Z" fill="#0B0803"/>
<path d="M42.3549 1.66721C43.0949 1.60492 43.8056 1.65886 44.4695 2.02242C44.9999 2.31298 45.4532 2.79225 45.616 3.38539C45.7169 3.75294 45.7279 4.21855 45.5199 4.55344C45.3728 4.79058 45.127 4.92934 44.8571 4.97992C44.6113 5.02604 44.2861 5.02546 44.0808 4.8607C43.6921 4.54876 43.9521 3.94901 43.8654 3.53586C43.8134 3.28706 43.6128 3.07603 43.3948 2.9567C43.0519 2.76861 42.5576 2.74576 42.1867 2.85732C41.8787 2.94992 41.646 3.15134 41.5048 3.43985C41.0952 4.27607 41.4059 5.55725 41.6868 6.38942C42.6091 6.4441 43.5519 6.40161 44.4773 6.40639C44.5004 6.81901 44.4794 7.22327 44.4547 7.63542C43.5156 7.63331 42.576 7.63668 41.6367 7.64539C41.5936 8.81975 41.5762 9.99489 41.5846 11.17C41.5814 12.3806 41.4608 13.7407 41.816 14.9083C42.2061 15.7632 43.0161 15.9073 43.2073 16.364C43.1779 16.4475 43.19 16.4617 43.1075 16.5105C42.8113 16.6875 38.3141 16.6529 37.912 16.5573C37.8965 16.5027 37.8759 16.4396 37.8739 16.3829C37.8618 16.0263 38.424 15.8765 38.64 15.6634C38.9408 15.3665 39.0894 14.8165 39.1592 14.407C39.3162 13.4865 39.2664 12.4721 39.2654 11.5395L39.2575 7.6433L37.4257 7.63552C37.398 7.22894 37.3983 6.82457 37.4001 6.41721C37.9844 6.42361 38.5687 6.42293 39.153 6.41521C39.0626 6.11762 38.9672 5.81881 38.9213 5.51051C38.7964 4.67198 38.9787 3.84359 39.4913 3.16195C40.1801 2.24617 41.2522 1.82189 42.3549 1.66721Z" fill="#0B0803"/>
</g>
</g>
<defs>
<clipPath id="clip0_4179_8846">
<rect width="84" height="36" fill="white" transform="translate(0.5 0.5)"/>
</clipPath>
<clipPath id="clip1_4179_8846">
<rect width="62.5159" height="35.861" fill="white" transform="translate(11 0.71936)"/>
</clipPath>
</defs>
</svg>
